<svg xmlns="http://www.w3.org/2000/svg" viewBox="0 0 512 512">
  <rect width="512" height="512" rx="112" fill="#fcfcf3"/>
  <g transform="translate(256,256) scale(0.23105360443622922,-0.23105360443622922) translate(-552.0,-297.0)">
    <path d="M200 0V610H11V745H541V610H355V0Z" fill="#1c275e"/>
    <g transform="translate(592.0,0) scale(1.0,1.0)"><path d="M63 495 69 515H376L370 495ZM399 766Q381 766 367.5 759.0Q354 752 343 742Q327 727 314.5 696.5Q302 666 291.0 626.5Q280 587 269 541L77 -174Q47 -175 20.0 -178.0Q-7 -181 -32 -188L156 513Q177 594 202.5 647.5Q228 701 263 733Q288 756 322.5 769.0Q357 782 394 782Q445 782 473.0 759.5Q501 737 501 703Q501 685 491.0 667.5Q481 650 464.5 639.0Q448 628 426 628Q403 628 390.0 638.5Q377 649 378 668Q378 696 395.5 716.5Q413 737 441 746Q440 753 428.5 759.5Q417 766 399 766Z" fill="#4a7fc1"/></g>
  </g>
</svg>