<svg xmlns="http://www.w3.org/2000/svg" viewBox="0 0 512 512">
  <rect width="512" height="512" rx="112" fill="#fcfcf3"/>
  <svg x="106" y="61" width="300" height="390" viewBox="0 0 100 130" preserveAspectRatio="xMidYMid meet">
    <defs><clipPath id="tower"><polygon points="35,102 65,102 60,44 40,44"/></clipPath></defs>
    <polygon points="43,23 43,33 6,26 11,10" fill="#d8b713" opacity="0.82"/>
    <polygon points="57,23 57,33 94,26 89,10" fill="#d8b713" opacity="0.82"/>
    <rect x="18" y="110" width="64" height="6" fill="#1c275e"/>
    <rect x="28" y="102" width="44" height="9" fill="#1c275e"/>
    <polygon points="35,102 65,102 60,44 40,44" fill="#1c275e"/>
    <rect x="0" y="60" width="100" height="9" fill="#4a7fc1" clip-path="url(#tower)"/>
    <rect x="0" y="79" width="100" height="9" fill="#4a7fc1" clip-path="url(#tower)"/>
    <rect x="37" y="39" width="26" height="6" fill="#1c275e"/>
    <rect x="37" y="44" width="26" height="2" fill="#4a7fc1"/>
    <rect x="43" y="22" width="14" height="18" fill="#1c275e"/>
    <rect x="44.5" y="23.5" width="11" height="15" fill="#d8b713"/>
    <polygon points="41,22 59,22 50,13" fill="#1c275e"/>
  </svg>
</svg>
