<svg xmlns="http://www.w3.org/2000/svg" viewBox="-4.9 -85.5 450.4 111.5" role="img" aria-label="Tripfluent">
<g transform="scale(0.1,-0.1)"><g transform="translate(0.0,0)"><path d="M200 0V610H11V745H541V610H355V0Z" fill="#1c275e"/></g><g transform="translate(532.0,0)"><path d="M55 0V546H195V415L185 434Q203 503 244.5 527.5Q286 552 343 552H375V422H328Q273 422 239.0 388.5Q205 355 205 294V0Z" fill="#1c275e"/></g><g transform="translate(898.0,0)"><path d="M55 0V546H205V0ZM55 595V745H205V595Z" fill="#1c275e"/></g><g transform="translate(1138.0,0)"><path d="M55 -200V546H195V442L182 472Q209 513 255.5 535.5Q302 558 362 558Q440 558 503.0 520.0Q566 482 603.0 417.5Q640 353 640 273Q640 194 603.5 129.0Q567 64 504.0 26.0Q441 -12 361 -12Q305 -12 257.5 8.5Q210 29 181 69L205 100V-200ZM343 123Q385 123 417.0 142.0Q449 161 467.0 195.0Q485 229 485 273Q485 317 467.0 350.5Q449 384 417.0 403.5Q385 423 343 423Q303 423 271.5 404.0Q240 385 222.5 351.0Q205 317 205 273Q205 229 222.5 195.0Q240 161 271.5 142.0Q303 123 343 123Z" fill="#1c275e"/></g><g transform="translate(1791.0,0)"><path d="M63 495 69 515H376L370 495ZM399 766Q381 766 367.5 759.0Q354 752 343 742Q327 727 314.5 696.5Q302 666 291.0 626.5Q280 587 269 541L77 -174Q47 -175 20.0 -178.0Q-7 -181 -32 -188L156 513Q177 594 202.5 647.5Q228 701 263 733Q288 756 322.5 769.0Q357 782 394 782Q445 782 473.0 759.5Q501 737 501 703Q501 685 491.0 667.5Q481 650 464.5 639.0Q448 628 426 628Q403 628 390.0 638.5Q377 649 378 668Q378 696 395.5 716.5Q413 737 441 746Q440 753 428.5 759.5Q417 766 399 766Z" fill="#4a7fc1"/></g><g transform="translate(2119.0,0)"><path d="M115 85Q108 57 111.5 42.0Q115 27 132 27Q149 27 166.0 47.0Q183 67 202 121L217 162H236L211 89Q198 50 178.0 27.5Q158 5 135.0 -4.5Q112 -14 87 -14Q54 -14 37.0 -2.0Q20 10 14.5 31.5Q9 53 12.5 79.0Q16 105 24 132L185 667Q195 701 183.0 717.0Q171 733 122 733L129 754Q189 755 235.5 765.5Q282 776 325 795Z" fill="#4a7fc1"/></g><g transform="translate(2404.0,0)"><path d="M396 348Q359 244 326.0 174.5Q293 105 260.5 63.5Q228 22 194.0 4.0Q160 -14 124 -14Q80 -14 59.5 5.5Q39 25 38.0 59.0Q37 93 51 137L148 430Q158 460 154.5 474.0Q151 488 133 488Q116 488 98.5 469.0Q81 450 61 394L46 353H27L52 426Q67 468 88.5 490.0Q110 512 133.5 520.5Q157 529 178 529Q222 529 239.0 509.0Q256 489 254.5 455.5Q253 422 239 383L146 102Q120 24 164 24Q186 24 212.0 46.5Q238 69 265.5 111.0Q293 153 320.0 210.0Q347 267 372.0 336.0Q397 405 417 482ZM410 85Q403 59 403.5 43.0Q404 27 423 27Q444 27 461.5 48.5Q479 70 496 121L511 163H530L505 89Q491 48 470.0 26.0Q449 4 425.5 -5.0Q402 -14 379 -14Q360 -14 344.5 -6.5Q329 1 321 15Q312 33 314.0 59.0Q316 85 326 126L425 515Q456 516 483.5 519.0Q511 522 534 529Z" fill="#4a7fc1"/></g><g transform="translate(2981.0,0)"><path d="M100 224Q151 242 193.5 261.0Q236 280 263 302Q300 333 321.5 375.5Q343 418 343 469Q343 495 339.0 502.5Q335 510 327 510Q303 510 275.5 488.0Q248 466 221.0 427.5Q194 389 171.5 340.5Q149 292 135.5 237.5Q122 183 122 130Q122 78 141.5 56.0Q161 34 193 34Q226 34 266.0 54.5Q306 75 345 128L361 120Q341 87 309.0 56.0Q277 25 236.5 5.5Q196 -14 149 -14Q108 -14 76.0 2.0Q44 18 26.5 49.5Q9 81 9 127Q9 173 25.5 227.5Q42 282 72.5 335.0Q103 388 145.0 432.5Q187 477 239.0 503.0Q291 529 349 529Q385 529 409.0 511.5Q433 494 433 459Q433 419 410.5 384.5Q388 350 350.0 322.0Q312 294 267.5 272.0Q223 250 178.5 234.0Q134 218 99 208Z" fill="#4a7fc1"/></g><g transform="translate(3423.0,0)"><path d="M134 0H29L149 430Q153 443 155.5 456.5Q158 470 154.0 479.0Q150 488 135 488Q115 488 98.5 468.0Q82 448 63 394L48 352H29L54 426Q76 487 108.5 508.0Q141 529 177 529Q209 529 224.0 516.0Q239 503 242.5 482.5Q246 462 242.5 437.5Q239 413 233 389ZM175 195Q211 291 244.5 355.5Q278 420 310.0 458.0Q342 496 375.5 512.5Q409 529 446 529Q494 529 512.5 507.0Q531 485 529.5 450.5Q528 416 516 378L419 85Q409 58 412.0 42.5Q415 27 434 27Q451 27 468.5 46.0Q486 65 506 121L521 162H540L515 89Q501 47 479.5 25.0Q458 3 434.5 -5.5Q411 -14 389 -14Q364 -14 347.0 -6.0Q330 2 321 16Q309 35 312.0 64.5Q315 94 328 132L421 413Q426 428 429.0 446.0Q432 464 428.0 477.5Q424 491 403 491Q381 491 355.0 469.0Q329 447 300.5 406.5Q272 366 245.0 311.0Q218 256 193.0 191.5Q168 127 147 55Z" fill="#4a7fc1"/></g><g transform="translate(4011.0,0)"><path d="M384 515 381 495H58L63 515ZM135 85Q127 54 139.0 40.5Q151 27 171 27Q193 27 215.0 46.5Q237 66 257 122L271 162H290L269 101Q248 37 212.0 11.5Q176 -14 128 -14Q85 -14 62.5 4.5Q40 23 36.0 56.5Q32 90 44 132L197 666Q227 667 254.5 670.0Q282 673 305 680Z" fill="#4a7fc1"/></g></g>
</svg>